# xmcd
#
# Track frame offsets:
#	182
#	22630
#	43887
#	63125
#	92865
#	109330
#	137932
#	156545
#	179192
#	205080
#	223502
#	242272
#	273260
#	296625
#
# Disc length: 4275 seconds
#
# Revision: 0
# Processed by: cddbd v1.4PL0 Copyright (c) Steve Scherf et al.
# Submitted via: EasyCDDAExtractor 4.6.0.1
#
DISCID=d110b10e
DTITLE=Alligator Blues Classics - Alligator Blues Clasic
DYEAR=1900
DGENRE=
TTITLE0=Katie Webster - Those lonely lonely nights
TTITLE1=Charlie Musselwhite - The blius overttook me
TTITLE2=Charles Brown - I cried last night
TTITLE3=Johnny Winter  - Third degree
TTITLE4=Kenny Neal - Going to the country
TTITLE5=Otish Rush - hold that train
TTITLE6=Koko Taylor - Spellbound
TTITLE7=Dave Hole - Key to the higway
TTITLE8=Buddy guy and Junior Wells -Medley - Baby what you want to do_That´s all
TTITLE8=right
TTITLE9=Lonnie Brooks - A Man´s got to do what a ma´s got to do
TTITLE10=Tinsley Collins - As the years go passing by
TTITLE11=Albert Collins - Too many dirty dishes
TTITLE12=Saffire - I almost lost my mind
TTITLE13=Maurice John Vaughan - (Everything i do) Got to be funky
EXTD=
EXTT0=
EXTT1=
EXTT2=
EXTT3=
EXTT4=
EXTT5=
EXTT6=
EXTT7=
EXTT8=
EXTT9=
EXTT10=
EXTT11=
EXTT12=
EXTT13=
PLAYORDER=
